<svg width="20" height="21" viewBox="0 0 20 21" fill="none" xmlns="http://www.w3.org/2000/svg">
<g id="Frame">
<path id="name" d="M17.6405 2.85834C17.394 2.60894 17.0875 2.42731 16.7504 2.331C16.4133 2.23468 16.057 2.22694 15.7161 2.30851L4.71953 4.62466C4.08625 4.71151 3.4898 4.97344 2.99734 5.38095C2.50488 5.78847 2.13597 6.32538 1.93217 6.93122C1.72836 7.53707 1.69775 8.18778 1.84378 8.81008C1.98981 9.43239 2.30668 10.0016 2.75871 10.4535L3.93946 11.6336C4.00337 11.6975 4.05405 11.7733 4.0886 11.8568C4.12316 11.9403 4.14091 12.0298 4.14084 12.1202V14.2975C4.14235 14.6036 4.21283 14.9055 4.34702 15.1806L4.34152 15.1855L4.35939 15.2033C4.56078 15.6082 4.88969 15.9357 5.29547 16.1353L5.31334 16.1531L5.31815 16.1476C5.59331 16.2818 5.89517 16.3523 6.20131 16.3538H8.37862C8.56079 16.3537 8.73556 16.4259 8.86453 16.5545L10.0446 17.7346C10.3611 18.0546 10.7378 18.3088 11.153 18.4826C11.5682 18.6563 12.0137 18.7462 12.4638 18.747C12.8389 18.7465 13.2115 18.6852 13.5669 18.5655C14.1672 18.3684 14.7005 18.0074 15.1066 17.5234C15.5127 17.0393 15.7754 16.4514 15.8652 15.826L18.1848 4.80541C18.2706 4.46152 18.2655 4.10123 18.1701 3.75989C18.0747 3.41855 17.8922 3.10787 17.6405 2.85834ZM4.91266 10.6631L3.73122 9.48306C3.45611 9.21458 3.26329 8.8732 3.1754 8.49898C3.08751 8.12476 3.10818 7.73323 3.235 7.37035C3.35795 6.99807 3.58524 6.66893 3.88984 6.42208C4.19444 6.17524 4.56352 6.02107 4.9532 5.97792L15.8405 3.68583L5.51403 14.0136V12.1202C5.51507 11.8496 5.46246 11.5815 5.35923 11.3314C5.25601 11.0813 5.10422 10.8542 4.91266 10.6631ZM14.5147 15.5909C14.4619 15.9706 14.3044 16.3279 14.0598 16.623C13.8152 16.9181 13.4932 17.1391 13.1299 17.2613C12.7666 17.3835 12.3765 17.402 12.0033 17.3148C11.6301 17.2276 11.2886 17.0381 11.0171 16.7676L9.83498 15.5854C9.64417 15.3936 9.41721 15.2415 9.16723 15.1379C8.91725 15.0343 8.64921 14.9813 8.37862 14.982H6.48516L16.813 4.65765L14.5147 15.5909Z" fill="#101010"/>
</g>
</svg>
